<svg xmlns="http://www.w3.org/2000/svg" width="20" height="20" fill="none" viewBox="0 0 24 24"><rect width="24" height="24" rx="5" fill="#F3F4F6"/><path d="M12 17.5c-3.59 0-6.5-2.91-6.5-6.5 0-2.87 2.34-5.21 5.21-5.21.41 0 .82.05 1.21.15.39-.1.8-.15 1.21-.15 2.87 0 5.21 2.34 5.21 5.21 0 3.59-2.91 6.5-6.5 6.5Zm-2.13-2.13c.13.13.29.19.46.19.17 0 .33-.06.46-.19.13-.13.19-.29.19-.46 0-.17-.06-.33-.19-.46-.13-.13-.29-.19-.46-.19-.17 0-.33.06-.46.19-.13.13-.19.29-.19.46 0 .17.06.33.19.46Zm4.26 0c.13.13.29.19.46.19.17 0 .33-.06.46-.19.13-.13.19-.29.19-.46 0-.17-.06-.33-.19-.46-.13-.13-.29-.19-.46-.19-.17 0-.33.06-.46.19-.13.13-.19.29-.19.46 0 .17.06.33.19.46Zm-2.13-1.37c.41 0 .82-.05 1.21-.15.39.1.8.15 1.21.15 1.1 0 2-.9 2-2 0-.41-.05-.82-.15-1.21-.1-.39-.15-.8-.15-1.21 0-1.1-.9-2-2-2s-2 .9-2 2c0 .41-.05.82-.15 1.21-.1.39-.15.8-.15 1.21 0 1.1.9 2 2 2Z" stroke="#4f46e5" stroke-width="1.5" stroke-linecap="round" stroke-linejoin="round"/></svg> 